<svg version="1.2" xmlns="http://www.w3.org/2000/svg" viewBox="0 0 1280 270" width="1280" height="270"><style>.s0{fill:#ff5959}.s1{fill:#502064}</style><path fill-rule="evenodd" class="s0" d="m255.5 39.2v157.2q87-0.6 144-3q-3.9 15.3-4.8 29.4q-0.9 14.1-0.9 34.2h-211.5q2.4-58.2 2.4-108.9q0-50.7-2.4-108.9zm357.9 142.8h-135q2.4 13.2 11.7 21.6q9.6 8.1 26.9 8.1q12.7 0 23.8-4.8q11-5.1 17.7-14.1q20.1 9.9 53.4 21.3q-9.3 21-33.9 33.6q-24.3 12.3-63.6 12.3q-51 0-75.6-23.4q-24.3-23.7-24.3-62.1q0-37.5 24.3-60.9q24.3-23.4 75.6-23.4q30.6 0 53.1 10.2q22.5 10.2 34.5 28.5q12 18 12 41.4q0 7.8-0.6 11.7zm-94.8-46.5q-15 0-24.6 5.7q-9.6 5.7-13.5 15.6h70.8q-3.6-9.6-11.7-15.3q-8.1-6-21-6zm308.7 36v35.7q-0.1 10.2 2.4 14.4q2.4 4.2 9.6 6l-1.2 28.2q-9.7 1.5-16.8 2.1q-6.9 0.6-18.6 0.6q-25.8 0-34.3-11.4q-8.3-11.7-8.3-29.7v-7.5q-8.8 24.6-25.5 36.6q-16.5 12-42.3 12q-30 0-45.3-12q-15-12-15-35.7q0-19.5 12.9-30.6q12.9-11.1 39.9-15.3q-22.8-16.2-45.6-28.2q18-22.8 41.1-34.5q23.1-12 56.1-12q46.2 0 68.4 20.1q22.5 19.8 22.5 61.2zm-84.6-28.5q-15.3 0-27 5.1q-11.8 5.1-21 15.3q17.9-2.1 45-2.1q11 0 15.6-2.7q4.5-2.7 4.5-6.9q0-3.6-4.5-6q-4.6-2.7-12.6-2.7zm-31.5 66.6q16.7 0 30.2-6.3q13.6-6.6 18.6-17.1v-7.8q-7.2 3.6-15.8 5.7q-8.8 1.8-21 3.6l-10.8 1.8q-16.8 3.3-16.8 11.4q0 8.7 15.6 8.7zm206.6-116.4l9 44.4q12.6-45.3 62.7-45.3q8.7 0 16.8 1.2l-9.6 67.2q-21.6-8.1-35.4-8.1q-17.1 0-25.2 10.2q-8.1 10.2-8.1 27.3v-0.3l-0.3 19.8q0 21.3 1.2 47.4h-71.6q2.4-43.2 2.4-81.6q0-38.4-2.4-82.2q19.7 0.9 30.2 0.9q11.2 0 30.3-0.9zm297 163.8h-67.5q1.8-44.1 1.8-81.3q0-13.2-6.6-21q-6.3-7.8-16.2-7.8q-9.9 0-16.8 9q-6.9 8.7-8.1 24q-0.6 22.8-0.6 32.4q0 20.4 1.2 44.7h-71.7q2.4-43.2 2.4-81.6q0-38.4-2.4-82.2q19.8 0.9 30.3 0.9q11.1 0 30.3-0.9l8.7 44.1q6.9-24 21.6-35.4q14.7-11.7 34.2-11.7q18 0 31.2 8.1q13.2 7.8 19.8 21.3q6.9 13.5 6.9 30.3v43.2q0 39.9 1.5 63.9z" /><path class="s1" d="m102.5 78.5q-18.9 0-28.2-9.3q-9-9.3-9-24.3q0-14.7 9-24.3q9.3-9.6 28.2-9.6q18 0 27.6 9.9q9.6 9.6 9.6 24q0 15-9.3 24.3q-9.3 9.3-27.9 9.3zm36.6 181.5h-71.4q2.1-48.3 2.1-79.8q0-37.5-2.4-84h72q-2.4 44.7-2.4 84q0 33 2.1 79.8z" /></svg>