<svg version="1.2" xmlns="http://www.w3.org/2000/svg" viewBox="0 0 400 108" width="370" height="100"><style></style><path fill="#000000" aria-label="LIVE"  d="m146.18 75.51q-0.24 0.68-1.46 4.98q-1.22 4.25-2.39 6.59q-1.18 2.34-3.42 4.2q3.12 2.83 4.83 4.74q1.71 1.85 2.15 4.19q-3.81-2.53-9.23-3.8q-5.42-1.32-10.06-1.32q-1.9 0-2.63 0.1q0 1.27 1.02 3.41q1.08 2.15 1.08 3.32q-4.45 0-8.55-0.92q-4.05-0.98-7.62-3.23q-3.56-2.24-6.1-5.76q-0.2 0.39-0.2 1.27q0 1.12 0.4 2.98q0.39 1.86 0.58 1.86q-1.37-0.15-3.76-1.62q-2.39-1.51-3.42-1.9q-0.44 0.59-0.44 1.32q0 0.29 0.1 0.83q0.1 0.54 0.15 1.17q0.1 0.59 0.1 1.07q-2.59-2.58-6.4-2.58q-1.86 0-3.13 0.48q-3.32 2.15-5.81 3.28q-2.49 1.12-5.17 1.12q-2.49 0-4.49-1.08q0.97-1.8 1.75-3.22q0.78-1.41 1.32-2.83q0.54-1.42 0.59-2.54q-0.05-1.61-0.54-2.93q-0.44-1.37-1.22-3.07q-0.73-1.76-1.22-3.23q0.44-0.29 0.98-0.29q0.44 0 1.22 0.19q0.78 0.2 1.22 0.2q0.73 0 1.27-0.68q-2.01-3.08-3.32-6.06q-1.32-3.03-2.79-7.37q1.22 0.58 3.52 2.59q2.29 2 3.61 2.93q1.32 0.88 3.18 1.02q-3.28-4.3-4.25-8.4q-0.98-4.15-2.39-13.08q-1.42-8.99-3.28-13.14q0.39 0.34 1.13 1.17q0.78 0.83 1.36 1.37q0.59 0.49 1.32 0.64q0-2.05-0.14-3.57q-0.1-1.51-0.35-3.17q-0.24-1.66-0.39-2.93q0.64 0.24 1.13 0.44q0.48 0.14 1.07 0.49q0.59 0.29 0.98 0.68q0-1.76-1.66-4.88q-1.61-3.13-1.91-4.15q-0.63-1.86-0.63-5.08q0-0.88 0.1-2.44q0.09-1.57 0.14-3.08q0.1-1.51 0.1-2.29q0-2.49-0.54-4.3q0.74 0.78 1.71 1.81q0.98 0.97 2.05 2q1.13 1.02 1.66 1.41l1.61-6q1.03 0.24 1.57 1.12q0.53 0.88 1.02 2.44q0.49 1.56 0.78 2.1q0.35 0.54 1.03 0.54q0.83 0 1.9-0.83q2.79-1.81 6.99-1.81q1.7 0 4.19 0.25q2.54 0.19 3.91 0.19q4 0 6.89-1.41q1.8-1.08 2.83-1.62q1.02-0.58 2.29-0.78q-0.88 2.88-4.64 7.47q-3.76 4.59-5.07 6.55q-1.32 1.9-1.32 5.27l6.39-4.59q-0.97 2.73-0.97 6.98q0.05 1.47 0.05 2.74q0.04 1.27 0.04 3.27q0 5.17-1.7 8.4q-0.93 1.8-3.71 4.54q-2.74 2.68-3.76 3.86q-1.03 1.17-1.52 3.32q2.83-0.49 5.91-2.74q3.12-2.24 5.37-5.08q-1.12 8.74-5.08 16.7q0.54 0.39 0.98 0.39q0.44 0 1.56-0.48q1.12-0.49 1.95-0.49q-1.12 2.19-2.44 4.73q-1.27 2.54-2.05 4.45q-0.78 1.9-1.22 4.2q1.56-0.54 3.03-1.42q1.46-0.88 3.12-2.1q1.71-1.27 3.18-2.39q-0.2 0.73-1.56 3.42q-1.37 2.68-1.47 4.49q2.49-1.42 7.33-2.15q4.88-0.78 8.39-1.42q3.52-0.68 6.2-2.83q-0.04 0.78-0.68 1.76q-0.63 0.93-1.46 2.2q-0.78 1.27-0.98 2.05q4.39-1.76 9.77-2.98q5.42-1.22 8.44-1.22zm42.39-65.53q0 2.73-0.64 4.93q-0.63 2.15-1.85 4.54q-1.23 2.35-1.76 3.76q-0.54 1.42-0.54 3.27q0 3.42 4.1 5.91q-1.37 1.52-2.83 3.23q-1.47 1.66-2.34 3.41q-0.83 1.76-0.83 3.67q0.14 2.49 2.1 2.49q1.46 0 3.02-0.98q1.08 3.27 1.08 7.47q0 5.08-1.37 8.35q-1.37 3.22-4.15 6.35q-2.78 3.12-3.91 4.64q-1.12 1.51-1.17 4.19q1.32-0.24 2.25-1.17q0.97-0.97 2.05-2.15q1.12-1.17 2.2-1.51q0.68 1.61 0.68 3.03q0 2.1-1.47 4.39q-1.41 2.25-2.88 4.49q-1.41 2.2-1.41 4.3q1.56 0 3.51-0.73q1.96-0.73 2.79-0.78q0 2 0.88 5.76q0.92 3.76 0.92 5.96q0 1.12-0.34 2.68l-10.59-2.78l-0.3 3.32q-2.15-1.51-5.08-2.25q-2.93-0.78-5.81-0.78q-3.76 0-7.22 1.22q-0.05-1.32-0.78-2.29q-0.74-1.03-2.15-2.15q-1.42-1.12-2.05-1.76q2.88-3.07 4.24-4.78q1.42-1.76 2.35-4.11q0.93-2.39 0.93-5.61q0-2.15-1.32-4.44q-1.27-2.35-2.59-4.64q-1.32-2.3-1.32-4.45q1.27 0.39 2.3 1.13q1.07 0.73 2.49 1.8q1.46 1.08 2.44 1.47q0-2.83-0.98-5.08q-0.93-2.29-2.73-5.27q-1.81-3.03-2.69-5.13q-0.83-2.1-0.83-5.22q0-2.3 0.98-6.6q1.02-4.29 1.02-6.78l4.59 3.22q-0.78-2.64-1.41-9.03q-0.59-6.4-1.27-9.87q-0.69-3.51-2.88-6.3q1.07 0.05 2.19 0.64q1.13 0.58 2.79 1.9q1.71 1.27 2 1.42q0.88-0.54 1.56-2q0.69-1.47 1.22-2.59q0.59-1.17 1.61-1.71q0.93 0.64 1.71 2.64q0.78 2 1.32 2.68q1.52-1.85 3.66-2.78q2.15-0.93 4.3-1.22q2.15-0.29 5.27-0.54q3.13-0.29 4.94-0.78zm98.73 0.83q-0.79 3.47-1.81 7.91q-1.03 4.44-2.3 7.76q-1.22 3.32-3.41 6.3q-2.2 2.98-5.72 5.03q-2.1 2.93-2.78 3.81q-0.68 0.88-1.12 1.76q-0.44 0.83-1.17 2.34q0.58-0.49 4.34-4.2q3.76-3.71 5.52-4.54q-0.34 3.76-1.86 7.28q-1.46 3.46-3.46 6.64q-1.96 3.12-5.18 8.01q-3.17 4.83-4.39 7.27q1.75-2 1.85-2.1q0.1-0.1 1.86-1.17q1.8-1.07 4.68-3.12q-0.97 2.97-1.41 5.07q-0.39 2.1-1.08 6.45q-0.63 4.34-1.31 7.81q-0.64 3.42-1.47 5.86l-3.61 6.2q-0.93-1.32-1.81-3.71q-0.83-2.44-1.27-3.47q-0.73 5.13-0.73 9.48q0 4.93 0.93 9.42q-1.76-0.73-2.93-2.05q-1.13-1.37-2.54-3.56q-1.42-2.25-2.35-3.37q-0.78 0.78-2.29 2.78q-1.51 1.95-2.59 3.12q-1.07 1.18-2.34 1.86q-0.3-1.03-0.3-2q0-0.78 0.35-2.83q0.39-2.06 0.39-2.93q-3.08 2.24-5.37 4.1q-2.25 1.8-3.96 4q-3.71-1.9-8.2-1.9q-2.3 0-3.37 0.19q0.1-2.49 1.32-4.98q1.22-2.54 3.46-3.71q-2.68-2.68-5.56-5.81q-2.83-3.12-5.32-6.3l8.2 2.3q-0.44-1.27-1.32-2.64q-0.83-1.42-2.44-3.61q-1.56-2.25-1.95-2.88q-2.01-3.32-2.93-6.25q-0.88-2.93-2.45-9.28q-1.56-6.4-3.12-10.26q-1.56-3.85-4.3-6.98q2.44 0.54 5.91 3.13q3.52 2.58 5.27 3.37q-0.44-2.88-2.1-5.23q-1.61-2.34-4.83-5.91q-3.22-3.56-4.83-6.1q-1.57-2.59-1.91-5.76q-0.34-3.76-1.9-6.89q-1.56-3.17-4.74-8.2q1.95 1.76 5.42 2.64q3.52 0.83 6.2 1.32q2.69 0.48 5.08 1.7q2.39 1.23 3.81 3.91q0.73-0.68 1.42-2.64q0.68-1.95 1.31-2.73q1.42 0.93 2.54 3.81q1.17 2.88 2.05 3.76q1.81-4.3 6.89-9.38q0 2.25-0.34 4.15q-0.3 1.86-0.78 3.91q-0.49 2-0.98 4.39q-0.49 2.35-0.49 4.25q0 1.81 0.39 3.37q1.27-1.85 2.2-3.32q0.98-1.46 1.71-2.59q0.73-1.12 1.61-2.78q0.93-1.66 1.66-3.47q0.34 1.37 0.34 3.96q0 4.59-1.02 8.84q-1.03 4.24-3.08 5.66q0.1 1.81 0.34 5.52q0.25 3.71 0.73 6.2q1.03-0.93 1.57-2.15q0.53-1.22 1.12-3.47q0.63-2.24 1.12-3.37q0.98 2.98 0.98 7.28q0 2.88-0.44 7.62q-0.44 4.73-0.44 6.39q0 7.28 3.81 11.82q0.34-1.32 0.83-3.71q0.54-2.44 0.93-4.74q0.44-2.34 0.73-3.66q1.41-2.88 2.1-6.49q0.68-3.67 0.68-7.82q0-5.76-1.46-10.1q0.68 0.39 1.56 1.41q0.93 0.98 1.71 1.37q0-1.95 0.29-5.57q0.29-3.61 0.54-7.22q0.29-3.62 0.29-5.57q0-4.2-0.93-7.71q1.22 0.63 2.01 1.46q0.83 0.78 1.66 1.86q0.87 1.02 2.05 2.39q1.07-1.12 1.61-2.2q0.58-1.07 0.83-2.15q0.29-1.12 0.44-2.24q0.14-1.18 0.44-2.84q1.61 1.62 3.02 2.79q1.42 1.17 3.47 2.88q2.05 1.66 3.47 3.22q1.46 1.56 2.54 3.42q1.66-1.86 3.81-3.52q2.14-1.66 5.42-3.85q3.27-2.2 4.98-3.52zm82.86 0.68q0 1.66-0.54 2.88q-0.54 1.18-1.81 2.98q-1.22 1.76-1.75 2.79q-0.49 0.97-0.49 2.44q0 0.88 1.12 3.76q1.17 2.83 1.17 5.17q-0.73-0.44-2.05-1.46q-1.27-1.08-2.24-1.61q-0.98-0.54-2.1-0.54q-0.44 0-1.13 1.47q-0.68 1.41-1.76 1.41q-0.53-2.54-1.9-3.76q-1.37 1.66-3.22 2.39q-1.81 0.74-4.98 1.32q-3.13 0.59-4.3 0.98l1.71-3.22q-1.66 0.09-5.52 0.14q-3.81 0-7.57 0.05q-3.71 0.05-4.05 0.2q1.95 0.92 4 2.54q2.1 1.56 2.1 3.07q0 2.15-1.31 3.57q-1.27 1.36-3.76 2.93q-2.49 1.51-3.81 3.02q-1.32 1.47-1.32 3.91q1.02 0.98 2.2 0.98q0.78 0 1.46-0.3q0.69-0.29 1.71-0.88q1.03-0.63 1.86-1.02q0.39 0.63 0.39 1.61q0 1.32-1.32 4.3q2.34-0.2 3.9-0.88q1.62-0.69 4.2-1.91q2.59-1.27 4.11-1.7q-0.1 0.43-0.49 1.9q-0.39 1.46-0.39 2.1q0 0.68 0.19 0.78q0.98-0.44 5.86-2.54q4.93-2.15 8.55-3.47q3.61-1.36 5.07-1.41q-0.19 0.58-0.87 1.71q-0.69 1.12-0.69 1.71q0 0.24 0.2 0.92l7.76-2.53q-3.27 6.88-3.27 11.81q0 3.57 1.51 6.01l-7.03-4.01q-2.68 4.3-9.67 6.4q1.42-2.83 1.52-3.17q0.14-0.39 0.14-1.81q-1.9 0-3.95 0.78q-2.05 0.78-3.13 0.78q-1.61 0-4.49-0.88q-2.88-0.88-4.39-0.88q-1.37 0-2.64 0.98q-1.27 0.98-1.27 2.3q0 0.73 0.34 1.31q0.39 0.54 1.13 1.27q0.78 0.69 1.22 1.18q0.44 0.48 0.58 1.22q-2.59 0.92-4.59 2.88q-2 1.95-2 4.44q0 1.17 0.68 2.59q0.69 1.41 1.71 1.41q1.76 0 4.84-2.49q0.49 0.35 0.49 1.18q0 0.63-0.3 2.14q-0.29 1.52-0.29 1.96q0 0.93 0.59 0.93q2.29-1.18 5.37-2.06q3.12-0.87 7.27-1.95q4.2-1.12 6.25-2l0.2 5.47q1.41-0.69 3.41-1.42q2.06-0.78 4.16-1.56q2.09-0.83 3.71-1.61q-0.1 1.12-0.1 2.93q0 3.12 0.78 6q0.83 2.84 0.83 5.08q0 0.83-0.49 1.61q-0.44 0.78-1.02 1.42q-0.54 0.63-1.37 1.76q-0.83 1.07-1.12 1.8q-2.3-1.46-3.23-1.95q-0.88-0.54-1.95-0.54q-1.07 0-1.81 2.01q-3.85-2.79-9.91-2.79q-4.1 0-7.47 1.37l-0.34-4q-1.61 1.9-3.91 3.07q-2.29 1.12-4.05 1.56q-1.71 0.39-5.42 0.98q-3.66 0.59-5.71 1.12q0.14-1.31 1.27-3.41q1.12-2.1 1.12-4.3q-1.76 1.81-3.91 2.54q-2.14 0.73-5.03 0.97q-2.88 0.2-5.61 0.35q-2.69 0.09-4.83 0.83q0.58-2.84 0.58-5.81q0-5.86-2.49-9.38q3.52 0 4.93 0.68q-1.17-3.27-2-6.98q-0.78-3.71-1.32-6.49q-0.54-2.79-1.56-6.3q-0.98-3.52-2.54-6.84v-0.39q0.98 0.39 2.88 1.42q1.95 0.98 3.22 1.46q1.32 0.44 2.69 0.44q-0.49-2.78-1.27-6.2q-0.78-3.42-1.17-5.61q-0.34-2.2-0.34-4.89q0-0.78-0.83-3.02q-0.78-2.3-1.76-4.64q-0.98-2.35-1.81-4.35q1.08 0.49 2.1 1.52q1.03 1.02 2.2 2.44q1.17 1.36 2.29 2.15q0.2-4.4 0.2-6.21q0-5.51-1.22-10.1q-1.17-4.59-4.2-8.89q1.66 0.34 2.78 1.07q1.17 0.69 3.42 2.4q2.25 1.66 3.52 2.24q1.8-6.1 3.61-8.83q0.68 0.73 0.98 3.02q0.34 2.25 0.53 3.08q0.25 0.78 1.66 1.12q2.1-2.68 4.4-3.37q2.29-0.68 7.76-1.61q5.47-0.93 7.86-2.44q0 1.51-0.34 2.44q-0.29 0.93-0.93 2.2q-0.63 1.27-0.92 2.15q2.14-0.15 5.85-1.47q3.72-1.37 5.62-1.61v3.61q1.81-2.68 4.15-3.71q2.39-1.02 5.66-1.02q0.69 0 1.47 0.05q0.78 0.05 2.73 0.19q1.96 0.1 2.69 0.1q3.56 0 5.91-1.03z" /><path fill="#000000" aria-label="I"  d="m54.87 8.98q0 2.73-0.63 4.93q-0.64 2.15-1.86 4.54q-1.22 2.35-1.76 3.76q-0.53 1.42-0.53 3.27q0 3.42 4.1 5.91q-1.37 1.52-2.83 3.23q-1.47 1.66-2.35 3.41q-0.83 1.76-0.83 3.67q0.15 2.49 2.1 2.49q1.47 0 3.03-0.98q1.07 3.27 1.07 7.47q0 5.08-1.36 8.35q-1.37 3.22-4.15 6.35q-2.79 3.12-3.91 4.64q-1.12 1.51-1.17 4.19q1.32-0.24 2.24-1.17q0.98-0.97 2.05-2.15q1.13-1.17 2.2-1.51q0.69 1.61 0.69 3.03q0 2.1-1.47 4.39q-1.42 2.25-2.88 4.49q-1.42 2.2-1.42 4.3q1.57 0 3.52-0.73q1.95-0.73 2.78-0.78q0 2 0.88 5.76q0.93 3.76 0.93 5.96q0 1.12-0.34 2.68l-10.6-2.78l-0.29 3.32q-2.15-1.51-5.08-2.25q-2.93-0.78-5.81-0.78q-3.76 0-7.23 1.22q-0.04-1.32-0.78-2.29q-0.73-1.03-2.15-2.15q-1.41-1.12-2.05-1.76q2.88-3.07 4.25-4.78q1.42-1.76 2.35-4.1q0.92-2.4 0.92-5.62q0-2.15-1.32-4.44q-1.26-2.35-2.58-4.64q-1.32-2.3-1.32-4.45q1.27 0.4 2.29 1.13q1.08 0.73 2.49 1.8q1.47 1.08 2.44 1.47q0-2.83-0.97-5.08q-0.93-2.29-2.74-5.27q-1.8-3.03-2.68-5.13q-0.83-2.1-0.83-5.22q0-2.3 0.97-6.6q1.03-4.29 1.03-6.78l4.59 3.22q-0.78-2.64-1.42-9.03q-0.58-6.4-1.27-9.87q-0.68-3.51-2.88-6.3q1.08 0.05 2.2 0.64q1.12 0.58 2.78 1.9q1.71 1.27 2.01 1.42q0.88-0.54 1.56-2q0.68-1.47 1.22-2.59q0.59-1.17 1.61-1.71q0.93 0.64 1.71 2.64q0.78 2 1.32 2.68q1.51-1.85 3.66-2.78q2.15-0.93 4.3-1.22q2.15-0.29 5.27-0.54q3.13-0.29 4.93-0.78z" /></svg>